<?xml version="1.0" encoding="utf-8"?>
<!-- Generator: Adobe Illustrator 24.1.1, SVG Export Plug-In . SVG Version: 6.00 Build 0)  -->
<svg version="1.1" id="Capa_1" xmlns="http://www.w3.org/2000/svg" xmlns:xlink="http://www.w3.org/1999/xlink" x="0px" y="0px"
	 viewBox="0 0 1024 1024" style="enable-background:new 0 0 1024 1024;" xml:space="preserve">
<style type="text/css">
	.st0{fill:url(#SVGID_1_);}
	.st1{opacity:0.32;}
	.st2{fill:#FFFFFF;}
</style>
<g>
	<linearGradient id="SVGID_1_" gradientUnits="userSpaceOnUse" x1="0" y1="512" x2="1024" y2="512">
		<stop  offset="0" style="stop-color:#00A99D"/>
		<stop  offset="1" style="stop-color:#29ABE2"/>
	</linearGradient>
	<path class="st0" d="M826.2,1024H197.8C88.6,1024,0,935.4,0,826.2V197.8C0,88.6,88.6,0,197.8,0h628.4C935.4,0,1024,88.6,1024,197.8
		v628.4C1024,935.4,935.4,1024,826.2,1024z"/>
</g>
<g class="st1">
	<path class="st2" d="M775.5,70.7c47.5,0,92.1,18.5,125.7,52.1s52.1,78.2,52.1,125.7v527c0,47.5-18.5,92.1-52.1,125.7
		c-33.6,33.6-78.2,52.1-125.7,52.1h-527c-47.5,0-92.1-18.5-125.7-52.1C89.2,867.6,70.7,823,70.7,775.5v-527
		c0-47.5,18.5-92.1,52.1-125.7S201,70.7,248.5,70.7H775.5 M775.5,50.7h-527c-109.2,0-197.8,88.6-197.8,197.8v527
		c0,109.2,88.6,197.8,197.8,197.8h527c109.2,0,197.8-88.6,197.8-197.8v-527C973.3,139.3,884.7,50.7,775.5,50.7L775.5,50.7z"/>
</g>
<g>
	<path class="st2" d="M699.6,392.3h32.8c14.1,0,25.7-11.5,25.7-25.7V258.5h11.6c10.9,0,19.8-8.9,19.8-19.8v-56.5
		c0-10.9-8.9-19.8-19.8-19.8H254.3c-10.9,0-19.8,8.9-19.8,19.8v56.5c0,10.9,8.9,19.8,19.8,19.8h11.6v37.7c0,5.7,4.6,10.3,10.3,10.3
		s10.3-4.6,10.3-10.3v-37.7h451v108.2c0,2.8-2.3,5.1-5.1,5.1c-22.2,0-420.5,0-440.9,0c-2.8,0-5.1-2.3-5.1-5.1v-29.4
		c0-5.7-4.6-10.3-10.3-10.3c-5.7,0-10.3,4.6-10.3,10.3v29.4c0,14.1,11.5,25.7,25.7,25.7h32.8c1.3,191.8-5.5,231,14.3,231
		c6.6,0,11.5-6.1,10.1-12.5c-6.6-30.4-2.7-41.2-3.8-218.5h334v182.7c0.1,92.1-74.8,167-166.9,167c-63.8,0-122.9-37.1-150.5-94.7
		c-2.5-5.1-8.6-7.3-13.7-4.8s-7.3,8.6-4.8,13.7c30.7,63.8,95.5,106.4,169.1,106.3c103.4,0,187.6-84.2,187.6-187.6L699.6,392.3
		L699.6,392.3z M255.1,237.9v-54.8h513.8v54.8C753.3,237.9,330.7,237.9,255.1,237.9z"/>
	<path class="st2" d="M512,790.1c-5.7,0-10.3,4.6-10.3,10.3v50.8c0,5.7,4.6,10.3,10.3,10.3c5.7,0,10.3-4.6,10.3-10.3v-50.8
		C522.3,794.7,517.7,790.1,512,790.1z"/>
	<path class="st2" d="M604.2,781.9c-2-5.3-7.9-8.1-13.2-6.1s-8.1,7.9-6.1,13.2l17.4,47.7c1.5,4.2,5.5,6.8,9.7,6.8
		c7.1,0,12.2-7.1,9.7-13.9L604.2,781.9z"/>
	<path class="st2" d="M675,736.4c-3.7-4.4-10.2-4.9-14.5-1.3c-4.4,3.7-4.9,10.2-1.3,14.5l32.6,38.9c3.6,4.4,10.1,4.9,14.5,1.3
		c4.4-3.7,4.9-10.2,1.3-14.5L675,736.4z"/>
	<path class="st2" d="M769.8,694.9l-44-25.4c-4.9-2.9-11.2-1.2-14.1,3.8c-2.9,4.9-1.2,11.2,3.8,14.1l44,25.4
		c4.9,2.9,11.2,1.2,14.1-3.8S774.7,697.7,769.8,694.9z"/>
	<path class="st2" d="M800.7,598l-50-8.8c-5.6-1-10.9,2.7-11.9,8.3c-1,5.6,2.7,10.9,8.3,11.9l50,8.8c5.6,1,10.9-2.7,11.9-8.3
		S806.3,599,800.7,598z"/>
	<path class="st2" d="M738.3,517.2c1,5.6,6.3,9.4,11.9,8.3l50-8.8c5.6-1,9.4-6.3,8.3-11.9c-1-5.6-6.3-9.4-11.9-8.3l-50,8.8
		C741,506.3,737.3,511.6,738.3,517.2z"/>
	<path class="st2" d="M432.9,775.7c-5.3-1.9-11.3,0.8-13.2,6.1l-17.4,47.7c-2.5,6.7,2.5,13.9,9.7,13.9c4.2,0,8.2-2.6,9.7-6.8
		l17.4-47.7C441.1,783.6,438.3,777.6,432.9,775.7z"/>
	<path class="st2" d="M363.6,735.1c-4.4-3.7-10.9-3.1-14.5,1.3l-32.6,38.9c-3.7,4.4-3.1,10.9,1.3,14.5s10.9,3.1,14.5-1.3l32.6-38.9
		C368.5,745.3,368,738.8,363.6,735.1z"/>
	<path class="st2" d="M298.2,669.4l-44,25.4c-9.1,5.3-5.3,19.3,5.2,19.3c1.8,0,3.5-0.5,5.1-1.4l44-25.4c4.9-2.9,6.6-9.1,3.8-14.1
		C309.4,668.3,303.2,666.6,298.2,669.4z"/>
	<path class="st2" d="M285.2,597.5c-1-5.6-6.3-9.4-11.9-8.3l-50,8.8c-5.6,1-9.4,6.3-8.3,11.9c1,5.6,6.3,9.4,11.9,8.3l50-8.8
		C282.5,608.5,286.2,603.1,285.2,597.5z"/>
	<path class="st2" d="M223.8,516.7c52.9,9.3,50.1,9,51.8,9c4.9,0,9.2-3.5,10.1-8.5c1-5.6-2.7-10.9-8.3-11.9l-50-8.8
		c-5.6-1-10.9,2.7-11.9,8.3C214.3,510.4,218.2,515.8,223.8,516.7z"/>
	<path class="st2" d="M543.7,492.1c-0.5,5.7,3.6,10.7,9.3,11.3c5.7,0.5,10.7-3.6,11.3-9.3c3.7-39.1,3.8-38.1,3.8-41.7
		c0-23.6-19.2-42.7-42.7-42.7h-26.6c-25.1,0-45.1,21.6-42.5,47l13.4,136c2.2,22,20.5,38.6,42.5,38.6c22.1,0,40.4-16.6,42.5-38.6
		l5.5-57.5c0.5-5.7-3.6-10.7-9.3-11.3c-5.7-0.5-10.7,3.6-11.3,9.3l-5.5,57.5c-1.1,11.4-10.6,20-22.1,20c-11.5,0-20.9-8.6-22.1-20
		c-14.2-144.3-13.5-136.1-13.5-138.2c0-12.2,10-22.1,22.2-22.1h26.6c12.9,0,23.3,11.1,22.1,24.3L543.7,492.1z"/>
	<path class="st2" d="M512,643.3c-22.5,0-40.7,18.2-40.7,40.7c0,22.4,18.2,40.7,40.7,40.7c22.4,0,40.7-18.2,40.7-40.7
		S534.4,643.3,512,643.3z M512,704c-11.1,0-20.1-9-20.1-20.1c0-11.1,9-20.1,20.1-20.1s20.1,9,20.1,20.1C532.1,695,523.1,704,512,704
		z"/>
</g>
</svg>
